<svg width="165" height="165" viewBox="0 0 165 165" fill="none" xmlns="http://www.w3.org/2000/svg">
<mask id="path-1-inside-1_1_14" fill="white">
<path fill-rule="evenodd" clip-rule="evenodd" d="M0 0H165V24H0V0ZM0 71H165V94H0V71ZM165 141H0V165H165V141Z"/>
</mask>
<path fill-rule="evenodd" clip-rule="evenodd" d="M0 0H165V24H0V0ZM0 71H165V94H0V71ZM165 141H0V165H165V141Z" fill="black"/>
<path d="M165 0H166V-1H165V0ZM0 0V-1H-1V0H0ZM165 24V25H166V24H165ZM0 24H-1V25H0V24ZM165 71H166V70H165V71ZM0 71V70H-1V71H0ZM165 94V95H166V94H165ZM0 94H-1V95H0V94ZM0 141V140H-1V141H0ZM165 141H166V140H165V141ZM0 165H-1V166H0V165ZM165 165V166H166V165H165ZM165 -1H0V1H165V-1ZM166 24V0H164V24H166ZM0 25H165V23H0V25ZM-1 0V24H1V0H-1ZM165 70H0V72H165V70ZM166 94V71H164V94H166ZM0 95H165V93H0V95ZM-1 71V94H1V71H-1ZM0 142H165V140H0V142ZM1 165V141H-1V165H1ZM165 164H0V166H165V164ZM164 141V165H166V141H164Z" fill="black" mask="url(#path-1-inside-1_1_14)"/>
</svg>
